<mxfile host="app.diagrams.net" modified="2022-10-20T21:07:23.654Z" agent="5.0 (X11; Linux x86_64) AppleWebKit/537.36 (KHTML, like Gecko) Chrome/106.0.0.0 Safari/537.36" etag="UEXaOyIPRuDfvFmfqru8" version="20.4.2" type="github">
  <diagram id="z9avxKSbuL60yGJpQ7t2" name="Page-1">
    <mxGraphModel dx="2193" dy="773" grid="1" gridSize="10" guides="1" tooltips="1" connect="1" arrows="1" fold="1" page="1" pageScale="1" pageWidth="827" pageHeight="1169" math="0" shadow="0">
      <root>
        <mxCell id="0" />
        <mxCell id="1" parent="0" />
        <mxCell id="NLPd5qukeARfpIiBdvrz-1" value="" style="ellipse;html=1;shape=startState;fillColor=#000000;strokeColor=#ff0000;" vertex="1" parent="1">
          <mxGeometry x="30" y="40" width="30" height="30" as="geometry" />
        </mxCell>
        <mxCell id="NLPd5qukeARfpIiBdvrz-2" value="" style="edgeStyle=orthogonalEdgeStyle;html=1;verticalAlign=bottom;endArrow=open;endSize=8;strokeColor=#ff0000;rounded=0;" edge="1" source="NLPd5qukeARfpIiBdvrz-1" parent="1">
          <mxGeometry relative="1" as="geometry">
            <mxPoint x="45" y="130" as="targetPoint" />
          </mxGeometry>
        </mxCell>
        <mxCell id="NLPd5qukeARfpIiBdvrz-3" value="User Customer" style="text;html=1;strokeColor=none;fillColor=none;align=center;verticalAlign=middle;whiteSpace=wrap;rounded=0;" vertex="1" parent="1">
          <mxGeometry x="15" y="10" width="60" height="30" as="geometry" />
        </mxCell>
        <mxCell id="NLPd5qukeARfpIiBdvrz-4" value="Interface" style="text;html=1;strokeColor=none;fillColor=none;align=center;verticalAlign=middle;whiteSpace=wrap;rounded=0;" vertex="1" parent="1">
          <mxGeometry x="200" y="10" width="60" height="30" as="geometry" />
        </mxCell>
        <mxCell id="NLPd5qukeARfpIiBdvrz-6" value="Data_Base" style="text;html=1;strokeColor=none;fillColor=none;align=center;verticalAlign=middle;whiteSpace=wrap;rounded=0;" vertex="1" parent="1">
          <mxGeometry x="384" y="10" width="60" height="30" as="geometry" />
        </mxCell>
        <mxCell id="NLPd5qukeARfpIiBdvrz-7" value="write review" style="ellipse;whiteSpace=wrap;html=1;" vertex="1" parent="1">
          <mxGeometry x="-20" y="130" width="140" height="40" as="geometry" />
        </mxCell>
        <mxCell id="NLPd5qukeARfpIiBdvrz-9" value="text has done" style="html=1;" vertex="1" parent="1">
          <mxGeometry x="-10" y="210" width="110" height="40" as="geometry" />
        </mxCell>
        <mxCell id="NLPd5qukeARfpIiBdvrz-12" value="" style="endArrow=none;dashed=1;html=1;rounded=0;startArrow=open;startFill=0;exitX=0.564;exitY=0;exitDx=0;exitDy=0;exitPerimeter=0;entryX=0.5;entryY=1;entryDx=0;entryDy=0;" edge="1" parent="1" source="NLPd5qukeARfpIiBdvrz-9" target="NLPd5qukeARfpIiBdvrz-7">
          <mxGeometry width="50" height="50" relative="1" as="geometry">
            <mxPoint x="340" y="320" as="sourcePoint" />
            <mxPoint x="440" y="220" as="targetPoint" />
            <Array as="points" />
          </mxGeometry>
        </mxCell>
        <mxCell id="NLPd5qukeARfpIiBdvrz-13" value="show text" style="ellipse;whiteSpace=wrap;html=1;" vertex="1" parent="1">
          <mxGeometry x="160" y="130" width="140" height="40" as="geometry" />
        </mxCell>
        <mxCell id="NLPd5qukeARfpIiBdvrz-14" value="" style="endArrow=open;endFill=1;endSize=12;html=1;rounded=0;exitX=1;exitY=0.5;exitDx=0;exitDy=0;entryX=0;entryY=0.5;entryDx=0;entryDy=0;" edge="1" parent="1" source="NLPd5qukeARfpIiBdvrz-7" target="NLPd5qukeARfpIiBdvrz-13">
          <mxGeometry width="160" relative="1" as="geometry">
            <mxPoint x="330" y="240" as="sourcePoint" />
            <mxPoint x="490" y="240" as="targetPoint" />
          </mxGeometry>
        </mxCell>
        <mxCell id="NLPd5qukeARfpIiBdvrz-16" value="" style="endArrow=none;dashed=1;html=1;rounded=0;startArrow=open;startFill=0;entryX=1;entryY=0.5;entryDx=0;entryDy=0;" edge="1" parent="1" target="NLPd5qukeARfpIiBdvrz-9">
          <mxGeometry width="50" height="50" relative="1" as="geometry">
            <mxPoint x="200" y="170" as="sourcePoint" />
            <mxPoint x="250" y="120" as="targetPoint" />
          </mxGeometry>
        </mxCell>
        <mxCell id="NLPd5qukeARfpIiBdvrz-17" value="text has shown" style="html=1;" vertex="1" parent="1">
          <mxGeometry x="175" y="210" width="110" height="40" as="geometry" />
        </mxCell>
        <mxCell id="NLPd5qukeARfpIiBdvrz-18" value="" style="endArrow=none;dashed=1;html=1;rounded=0;startArrow=open;startFill=0;entryX=0.721;entryY=1.075;entryDx=0;entryDy=0;entryPerimeter=0;" edge="1" parent="1" target="NLPd5qukeARfpIiBdvrz-13">
          <mxGeometry width="50" height="50" relative="1" as="geometry">
            <mxPoint x="260" y="210" as="sourcePoint" />
            <mxPoint x="310" y="160" as="targetPoint" />
          </mxGeometry>
        </mxCell>
        <mxCell id="NLPd5qukeARfpIiBdvrz-19" value="save review" style="ellipse;whiteSpace=wrap;html=1;" vertex="1" parent="1">
          <mxGeometry x="380" y="240" width="140" height="40" as="geometry" />
        </mxCell>
        <mxCell id="NLPd5qukeARfpIiBdvrz-20" value="" style="endArrow=open;endFill=1;endSize=12;html=1;rounded=0;exitX=1;exitY=0.5;exitDx=0;exitDy=0;entryX=0;entryY=0.5;entryDx=0;entryDy=0;" edge="1" parent="1" source="NLPd5qukeARfpIiBdvrz-13" target="NLPd5qukeARfpIiBdvrz-19">
          <mxGeometry width="160" relative="1" as="geometry">
            <mxPoint x="330" y="240" as="sourcePoint" />
            <mxPoint x="490" y="240" as="targetPoint" />
          </mxGeometry>
        </mxCell>
        <mxCell id="NLPd5qukeARfpIiBdvrz-21" value="review has saved" style="html=1;" vertex="1" parent="1">
          <mxGeometry x="395" y="330" width="110" height="40" as="geometry" />
        </mxCell>
        <mxCell id="NLPd5qukeARfpIiBdvrz-22" value="" style="endArrow=open;endFill=1;endSize=12;html=1;rounded=0;entryX=0.5;entryY=0;entryDx=0;entryDy=0;exitX=0.5;exitY=1;exitDx=0;exitDy=0;" edge="1" parent="1" source="NLPd5qukeARfpIiBdvrz-19" target="NLPd5qukeARfpIiBdvrz-21">
          <mxGeometry width="160" relative="1" as="geometry">
            <mxPoint x="330" y="240" as="sourcePoint" />
            <mxPoint x="490" y="240" as="targetPoint" />
          </mxGeometry>
        </mxCell>
        <mxCell id="NLPd5qukeARfpIiBdvrz-23" value="" style="ellipse;html=1;shape=endState;fillColor=#000000;strokeColor=#ff0000;" vertex="1" parent="1">
          <mxGeometry x="350" y="410" width="30" height="30" as="geometry" />
        </mxCell>
        <mxCell id="NLPd5qukeARfpIiBdvrz-24" value="" style="endArrow=open;endFill=1;endSize=12;html=1;rounded=0;entryX=0.5;entryY=0;entryDx=0;entryDy=0;exitX=0.086;exitY=0.85;exitDx=0;exitDy=0;exitPerimeter=0;" edge="1" parent="1" source="NLPd5qukeARfpIiBdvrz-19" target="NLPd5qukeARfpIiBdvrz-23">
          <mxGeometry width="160" relative="1" as="geometry">
            <mxPoint x="330" y="240" as="sourcePoint" />
            <mxPoint x="490" y="240" as="targetPoint" />
          </mxGeometry>
        </mxCell>
      </root>
    </mxGraphModel>
  </diagram>
</mxfile>
